<svg fill="none" height="32" viewBox="0 0 32 32" width="32" xmlns="http://www.w3.org/2000/svg" xmlns:xlink="http://www.w3.org/1999/xlink"><linearGradient id="a" gradientUnits="userSpaceOnUse" x1="4.82687" x2="26.0386" y1="10.4808" y2="10.4808"><stop offset="0"/><stop offset=".5108" stop-color="#dfdfdf"/><stop offset=".8763"/></linearGradient><linearGradient id="b"><stop offset=".0029" stop-color="#b5b5b5" stop-opacity="0"/><stop offset=".1244" stop-color="#969696" stop-opacity=".1632"/><stop offset=".5553" stop-color="#2b2b2b" stop-opacity=".7421"/><stop offset=".7473"/></linearGradient><linearGradient id="c" gradientUnits="userSpaceOnUse" x1="15.1016" x2="23.4181" xlink:href="#b" y1="6.13373" y2="13.3818"/><linearGradient id="d" gradientUnits="userSpaceOnUse" x1="15.7648" x2="7.44927" xlink:href="#b" y1="6.13453" y2="13.3818"/><linearGradient id="e" gradientUnits="userSpaceOnUse" x1="16.7614" x2="24.543" y1="29.3518" y2="24.0513"><stop offset=".0029" stop-color="#b5b5b5" stop-opacity="0"/><stop offset=".0486" stop-color="#a8a8a8" stop-opacity=".0514"/><stop offset=".2682" stop-color="#6c6c6c" stop-opacity=".2982"/><stop offset=".4258" stop-color="#3e3e3e" stop-opacity=".5252"/><stop offset=".5591" stop-color="#1c1c1c" stop-opacity=".725"/><stop offset=".7208" stop-color="#070707" stop-opacity=".8901"/><stop offset=".8679"/></linearGradient><path d="m27.798 25.11c1.918-2.572 3.067-5.751 3.067-9.206 0-8.52299-6.909-15.432992-15.433-15.432992-8.523 0-15.432 6.909002-15.432 15.431992 0 8.523 6.909 15.433 15.433 15.433 3.442 0 6.61-1.141 9.177-3.046l-.046.055 3.147 3.246 3.369-3.246z" fill="#000"/><path d="m15.433 30.161c7.8745 0 14.258-6.3835 14.258-14.258 0-7.87446-6.3835-14.25798-14.258-14.25798-7.87449 0-14.25801 6.38352-14.25801 14.25798 0 7.8745 6.38352 14.258 14.25801 14.258z" fill="#fff"/><path d="m15.433 4.42102c-6.34199 0-11.48299 5.141-11.48299 11.48298 0 6.342 5.141 11.483 11.48299 11.483 6.342 0 11.483-5.141 11.483-11.483 0-6.34198-5.142-11.48298-11.483-11.48298zm0 15.99898c-2.495 0-4.517-2.022-4.517-4.517s2.022-4.517 4.517-4.517 4.517 2.022 4.517 4.517-2.023 4.517-4.517 4.517z" fill="#000"/><path d="m15.433 16.883c.5412 0 .98-.4387.98-.98 0-.5412-.4388-.98-.98-.98s-.98.4388-.98.98c0 .5413.4388.98.98.98z" fill="#000"/><path d="m9.94197 15.67c.12203-2.927 2.53303-5.263 5.49003-5.263s5.368 2.336 5.49 5.263h5.115c-.124-5.75298-4.823-10.37798-10.606-10.37798-5.78303 0-10.48003 4.626-10.60403 10.37798z" fill="url(#a)"/><path d="m15.433 5.29303v5.11497c2.958.037 5.422 2.41 5.493 5.36h5.115c-.072-5.77397-4.825-10.43697-10.608-10.47497z" fill="url(#c)"/><path d="m15.433 5.29303v5.11497c-2.958.037-5.419 2.41-5.49003 5.36h-5.116c.072-5.77397 4.82299-10.43697 10.60603-10.47497z" fill="url(#d)"/><path d="m22.994 24.541c-2.02 1.77-4.665 2.845-7.562 2.845-.012 0-.023-.001-.034-.001v2.775c.012 0 .023.001.034.001 3.593 0 6.874-1.332 9.381-3.526-.6-.703-1.226-1.386-1.819-2.094z" fill="url(#e)"/><path d="m29.527 28.372-7.691-7.708c-.227-.301-.586-.496-.991-.496-.686 0-1.242.556-1.242 1.242 0 .334.133.637.348.861.014.015.03.03.045.044l7.838 7.663z" fill="#fff"/></svg>