<svg fill="none" height="25" viewBox="0 0 25 25" width="25" xmlns="http://www.w3.org/2000/svg"><path d="m12.0361.0395737c-6.62727 0-11.9999672 5.3725463-11.9999672 11.9998263 0 6.6275 5.3726972 11.9996 11.9999672 11.9996 6.6279 0 12-5.3721 12-11.9996 0-6.62685-5.3721-11.9992532-12.0002-11.9992532zm5.5031 17.3071263c-.215.3525-.6764.4643-1.0289.2479-2.8175-1.721-6.3643-2.1107-10.54134-1.1564-.40251.0917-.80374-.1605-.89544-.5631-.09214-.4027.15905-.8039.56257-.8956 4.57111-1.0448 8.49211-.5947 11.65521 1.3384.3525.2163.4642.6763.2479 1.0288zm1.4687-3.2678c-.2708.4406-.8468.5796-1.2868.3088-3.2255-1.9831-8.1424-2.5573-11.95762-1.3992-.4948.1495-1.01739-.1294-1.16757-.6233-.14902-.4948.12997-1.0164.62391-1.1668 4.35802-1.32236 9.77588-.6818 13.47998 1.5944.44.2708.5789.8469.3081 1.2862zm.1261-3.4024c-3.8675-2.29717-10.24842-2.50839-13.94098-1.38768-.59295.17983-1.22001-.15491-1.3997-.74786-.17969-.59324.15476-1.21987.74814-1.40013 4.2388-1.28679 11.28534-1.03817 15.73804 1.60519.5345.31653.7093 1.00535.3926 1.53798-.3152.5333-1.0059.7092-1.5375.3925z" fill="#1ed760"/></svg>